<svg width="24" height="19" viewBox="0 0 24 19" fill="none" xmlns="http://www.w3.org/2000/svg">
<path d="M15.0227 6C14.929 5.71307 14.8054 5.45597 14.652 5.22869C14.5014 4.99858 14.321 4.80256 14.1108 4.64062C13.9034 4.47869 13.6676 4.35511 13.4034 4.26989C13.1392 4.18466 12.8494 4.14205 12.5341 4.14205C12.017 4.14205 11.5469 4.27557 11.1236 4.54261C10.7003 4.80966 10.3636 5.20312 10.1136 5.72301C9.86364 6.2429 9.73864 6.88068 9.73864 7.63636C9.73864 8.39205 9.86506 9.02983 10.1179 9.54972C10.3707 10.0696 10.7131 10.4631 11.1449 10.7301C11.5767 10.9972 12.0625 11.1307 12.6023 11.1307C13.1023 11.1307 13.5426 11.0241 13.9233 10.8111C14.3068 10.5952 14.6051 10.2912 14.8182 9.89915C15.0341 9.50426 15.142 9.03977 15.142 8.50568L15.4659 8.57386H12.8409V7.63636H16.1648V8.57386C16.1648 9.29261 16.0114 9.91761 15.7045 10.4489C15.4006 10.9801 14.9801 11.392 14.4432 11.6847C13.9091 11.9744 13.2955 12.1193 12.6023 12.1193C11.8295 12.1193 11.1506 11.9375 10.5653 11.5739C9.98295 11.2102 9.52841 10.6932 9.2017 10.0227C8.87784 9.35227 8.71591 8.55682 8.71591 7.63636C8.71591 6.94602 8.80824 6.32528 8.9929 5.77415C9.1804 5.22017 9.4446 4.74858 9.78551 4.35938C10.1264 3.97017 10.5298 3.67188 10.9957 3.46449C11.4616 3.2571 11.9744 3.15341 12.5341 3.15341C12.9943 3.15341 13.4233 3.22301 13.821 3.36222C14.2216 3.49858 14.5781 3.69318 14.8906 3.94602C15.206 4.19602 15.4688 4.49574 15.679 4.84517C15.8892 5.19176 16.0341 5.5767 16.1136 6H15.0227Z" fill="white"/>
<line y1="1.5" x2="16" y2="1.5" stroke="white"/>
<line x1="7.5" y1="2" x2="7.5" y2="16" stroke="white"/>
</svg>
