<svg width="57" height="10" viewBox="0 0 57 10" fill="none" xmlns="http://www.w3.org/2000/svg">
<path d="M0.579545 1.21023V0.272727H7.125V1.21023H4.38068V9H3.32386V1.21023H0.579545ZM8.75604 9V0.272727H14.0231V1.21023H9.81286V4.15909H13.7504V5.09659H9.81286V8.0625H14.0913V9H8.75604ZM19.0984 6.27273H20.2575L21.229 7.55114L21.4847 7.89205L22.9336 9.81818H21.7745L20.82 8.53977L20.5813 8.21591L19.0984 6.27273ZM23.2915 4.63636C23.2915 5.55682 23.1254 6.35227 22.793 7.02273C22.4606 7.69318 22.0046 8.21023 21.4251 8.57386C20.8455 8.9375 20.1836 9.11932 19.4393 9.11932C18.695 9.11932 18.033 8.9375 17.4535 8.57386C16.8739 8.21023 16.418 7.69318 16.0856 7.02273C15.7532 6.35227 15.587 5.55682 15.587 4.63636C15.587 3.71591 15.7532 2.92045 16.0856 2.25C16.418 1.57955 16.8739 1.0625 17.4535 0.698864C18.033 0.335227 18.695 0.153409 19.4393 0.153409C20.1836 0.153409 20.8455 0.335227 21.4251 0.698864C22.0046 1.0625 22.4606 1.57955 22.793 2.25C23.1254 2.92045 23.2915 3.71591 23.2915 4.63636ZM22.2688 4.63636C22.2688 3.88068 22.1424 3.2429 21.8896 2.72301C21.6396 2.20312 21.3001 1.80966 20.8711 1.54261C20.445 1.27557 19.9677 1.14205 19.4393 1.14205C18.9109 1.14205 18.4322 1.27557 18.0032 1.54261C17.5771 1.80966 17.2376 2.20312 16.9847 2.72301C16.7347 3.2429 16.6097 3.88068 16.6097 4.63636C16.6097 5.39205 16.7347 6.02983 16.9847 6.54972C17.2376 7.0696 17.5771 7.46307 18.0032 7.73011C18.4322 7.99716 18.9109 8.13068 19.4393 8.13068C19.9677 8.13068 20.445 7.99716 20.8711 7.73011C21.3001 7.46307 21.6396 7.0696 21.8896 6.54972C22.1424 6.02983 22.2688 5.39205 22.2688 4.63636ZM31.0344 3C30.9407 2.71307 30.8171 2.45597 30.6637 2.22869C30.5131 1.99858 30.3327 1.80256 30.1225 1.64062C29.9151 1.47869 29.6793 1.35511 29.4151 1.26989C29.1509 1.18466 28.8612 1.14205 28.5458 1.14205C28.0288 1.14205 27.5586 1.27557 27.1353 1.54261C26.712 1.80966 26.3754 2.20312 26.1254 2.72301C25.8754 3.2429 25.7504 3.88068 25.7504 4.63636C25.7504 5.39205 25.8768 6.02983 26.1296 6.54972C26.3825 7.0696 26.7248 7.46307 27.1566 7.73011C27.5884 7.99716 28.0742 8.13068 28.614 8.13068C29.114 8.13068 29.5543 8.02415 29.935 7.81108C30.3185 7.59517 30.6168 7.29119 30.8299 6.89915C31.0458 6.50426 31.1538 6.03977 31.1538 5.50568L31.4776 5.57386H28.8526V4.63636H32.1765V5.57386C32.1765 6.29261 32.0231 6.91761 31.7163 7.44886C31.4123 7.98011 30.9918 8.39205 30.4549 8.68466C29.9208 8.97443 29.3072 9.11932 28.614 9.11932C27.8413 9.11932 27.1623 8.9375 26.5771 8.57386C25.9947 8.21023 25.5401 7.69318 25.2134 7.02273C24.8896 6.35227 24.7276 5.55682 24.7276 4.63636C24.7276 3.94602 24.82 3.32528 25.0046 2.77415C25.1921 2.22017 25.4563 1.74858 25.7972 1.35938C26.1381 0.97017 26.5415 0.671875 27.0075 0.464489C27.4734 0.257102 27.9862 0.153409 28.5458 0.153409C29.006 0.153409 29.435 0.223011 29.8327 0.362216C30.2333 0.498579 30.5898 0.693181 30.9023 0.946022C31.2177 1.19602 31.4805 1.49574 31.6907 1.84517C31.9009 2.19176 32.0458 2.5767 32.1254 3H31.0344ZM39.7138 0.272727H40.7706V6.05114C40.7706 6.64773 40.63 7.1804 40.3487 7.64915C40.0703 8.11506 39.6768 8.48295 39.1683 8.75284C38.6598 9.01989 38.0632 9.15341 37.3786 9.15341C36.6939 9.15341 36.0973 9.01989 35.5888 8.75284C35.0803 8.48295 34.6854 8.11506 34.4041 7.64915C34.1257 7.1804 33.9865 6.64773 33.9865 6.05114V0.272727H35.0433V5.96591C35.0433 6.39205 35.1371 6.77131 35.3246 7.10369C35.5121 7.43324 35.7791 7.69318 36.1257 7.88352C36.4751 8.07102 36.8928 8.16477 37.3786 8.16477C37.8643 8.16477 38.282 8.07102 38.6314 7.88352C38.9808 7.69318 39.2479 7.43324 39.4325 7.10369C39.62 6.77131 39.7138 6.39205 39.7138 5.96591V0.272727ZM42.131 0.272727H43.3413L45.7617 4.34659H45.864L48.2844 0.272727H49.4947L46.3413 5.40341V9H45.2844V5.40341L42.131 0.272727ZM55.6342 2.45455C55.5831 2.02273 55.3757 1.6875 55.0121 1.44886C54.6484 1.21023 54.2024 1.09091 53.674 1.09091C53.2876 1.09091 52.9496 1.15341 52.6598 1.27841C52.3729 1.40341 52.1484 1.57528 51.9865 1.79403C51.8274 2.01278 51.7479 2.26136 51.7479 2.53977C51.7479 2.77273 51.8033 2.97301 51.9141 3.14062C52.0277 3.3054 52.1726 3.44318 52.3487 3.55398C52.5249 3.66193 52.7095 3.75142 52.9027 3.82244C53.0959 3.89062 53.2734 3.94602 53.4354 3.98864L54.3217 4.22727C54.549 4.28693 54.8018 4.36932 55.0803 4.47443C55.3615 4.57955 55.63 4.72301 55.8857 4.90483C56.1442 5.08381 56.3572 5.31392 56.5249 5.59517C56.6925 5.87642 56.7763 6.22159 56.7763 6.63068C56.7763 7.10227 56.6527 7.52841 56.4055 7.90909C56.1612 8.28977 55.8033 8.59233 55.3317 8.81676C54.8629 9.04119 54.2933 9.15341 53.6229 9.15341C52.9979 9.15341 52.4567 9.05256 51.9993 8.85085C51.5447 8.64915 51.1868 8.3679 50.9254 8.0071C50.6669 7.64631 50.5206 7.22727 50.4865 6.75H51.5774C51.6058 7.07955 51.7166 7.35227 51.9098 7.56818C52.1058 7.78125 52.353 7.94034 52.6513 8.04545C52.9524 8.14773 53.2763 8.19886 53.6229 8.19886C54.0263 8.19886 54.3885 8.13352 54.7095 8.00284C55.0305 7.86932 55.2848 7.68466 55.4723 7.44886C55.6598 7.21023 55.7536 6.93182 55.7536 6.61364C55.7536 6.32386 55.6726 6.08807 55.5107 5.90625C55.3487 5.72443 55.1357 5.5767 54.8714 5.46307C54.6072 5.34943 54.3217 5.25 54.0149 5.16477L52.9411 4.85795C52.2592 4.66193 51.7195 4.3821 51.3217 4.01847C50.924 3.65483 50.7251 3.17898 50.7251 2.59091C50.7251 2.10227 50.8572 1.67614 51.1214 1.3125C51.3885 0.946023 51.7464 0.661932 52.1953 0.460227C52.647 0.255682 53.1513 0.153409 53.7081 0.153409C54.2706 0.153409 54.7706 0.254261 55.2081 0.455966C55.6456 0.654829 55.9922 0.927556 56.2479 1.27415C56.5064 1.62074 56.6428 2.0142 56.657 2.45455H55.6342Z" fill="#131010"/>
</svg>
